<mxfile host="app.diagrams.net" agent="Mozilla/5.0 (Windows NT 10.0; Win64; x64) AppleWebKit/537.36 (KHTML, like Gecko) Chrome/127.0.0.0 Safari/537.36" version="24.7.17">
  <diagram name="Viveros" id="qzEOuTu9NKWMBjpNig4R">
    <mxGraphModel grid="1" page="1" gridSize="10" guides="1" tooltips="1" connect="1" arrows="1" fold="1" pageScale="1" pageWidth="827" pageHeight="1169" math="0" shadow="0">
      <root>
        <mxCell id="0" />
        <mxCell id="1" parent="0" />
        <mxCell id="AyrixzSQWaV738IrmU4d-55" style="edgeStyle=none;curved=1;rounded=0;orthogonalLoop=1;jettySize=auto;html=1;exitX=1;exitY=0.5;exitDx=0;exitDy=0;entryX=0;entryY=0.5;entryDx=0;entryDy=0;fontSize=12;startSize=8;endSize=8;endArrow=none;endFill=0;" edge="1" parent="1" source="AyrixzSQWaV738IrmU4d-10" target="AyrixzSQWaV738IrmU4d-54">
          <mxGeometry relative="1" as="geometry" />
        </mxCell>
        <mxCell id="AyrixzSQWaV738IrmU4d-10" value="Vivero" style="rounded=0;whiteSpace=wrap;html=1;aspect=fixed;fontSize=14;fillColor=#e1d5e7;strokeColor=#9673a6;" vertex="1" parent="1">
          <mxGeometry x="385" y="430" width="100" height="50" as="geometry" />
        </mxCell>
        <mxCell id="AyrixzSQWaV738IrmU4d-51" style="edgeStyle=none;curved=1;rounded=0;orthogonalLoop=1;jettySize=auto;html=1;exitX=0.5;exitY=1;exitDx=0;exitDy=0;fontSize=12;startSize=8;endSize=8;endArrow=none;endFill=0;" edge="1" parent="1" source="AyrixzSQWaV738IrmU4d-11" target="AyrixzSQWaV738IrmU4d-22">
          <mxGeometry relative="1" as="geometry" />
        </mxCell>
        <mxCell id="AyrixzSQWaV738IrmU4d-56" style="edgeStyle=none;curved=1;rounded=0;orthogonalLoop=1;jettySize=auto;html=1;exitX=0;exitY=0.5;exitDx=0;exitDy=0;entryX=1;entryY=0.5;entryDx=0;entryDy=0;fontSize=12;startSize=8;endSize=8;endArrow=none;endFill=0;" edge="1" parent="1" source="AyrixzSQWaV738IrmU4d-11" target="AyrixzSQWaV738IrmU4d-54">
          <mxGeometry relative="1" as="geometry" />
        </mxCell>
        <mxCell id="AyrixzSQWaV738IrmU4d-113" style="edgeStyle=none;curved=1;rounded=0;orthogonalLoop=1;jettySize=auto;html=1;exitX=1;exitY=0.5;exitDx=0;exitDy=0;fontSize=12;startSize=8;endSize=8;endArrow=none;endFill=0;" edge="1" parent="1" source="AyrixzSQWaV738IrmU4d-11" target="AyrixzSQWaV738IrmU4d-112">
          <mxGeometry relative="1" as="geometry" />
        </mxCell>
        <mxCell id="AyrixzSQWaV738IrmU4d-11" value="Zona" style="rounded=0;whiteSpace=wrap;html=1;aspect=fixed;fontSize=14;fillColor=#e1d5e7;strokeColor=#9673a6;" vertex="1" parent="1">
          <mxGeometry x="660" y="430" width="100" height="50" as="geometry" />
        </mxCell>
        <mxCell id="Z_fFSw_3jqZQKLgusjVg-11" style="rounded=0;orthogonalLoop=1;jettySize=auto;html=1;exitX=0.5;exitY=1;exitDx=0;exitDy=0;entryX=0.5;entryY=0;entryDx=0;entryDy=0;endArrow=none;endFill=0;" edge="1" parent="1" source="AyrixzSQWaV738IrmU4d-12" target="Z_fFSw_3jqZQKLgusjVg-10">
          <mxGeometry relative="1" as="geometry" />
        </mxCell>
        <mxCell id="Z_fFSw_3jqZQKLgusjVg-43" style="rounded=0;orthogonalLoop=1;jettySize=auto;html=1;exitX=0.5;exitY=1;exitDx=0;exitDy=0;entryX=0.5;entryY=0;entryDx=0;entryDy=0;endArrow=none;endFill=0;" edge="1" parent="1" source="AyrixzSQWaV738IrmU4d-12" target="Z_fFSw_3jqZQKLgusjVg-42">
          <mxGeometry relative="1" as="geometry" />
        </mxCell>
        <mxCell id="AyrixzSQWaV738IrmU4d-12" value="Producto" style="rounded=0;whiteSpace=wrap;html=1;aspect=fixed;fontSize=14;fillColor=#e1d5e7;strokeColor=#9673a6;" vertex="1" parent="1">
          <mxGeometry x="660" y="640" width="100" height="50" as="geometry" />
        </mxCell>
        <mxCell id="AyrixzSQWaV738IrmU4d-47" style="edgeStyle=none;curved=1;rounded=0;orthogonalLoop=1;jettySize=auto;html=1;exitX=0.5;exitY=1;exitDx=0;exitDy=0;fontSize=12;startSize=8;endSize=8;endArrow=none;endFill=0;entryX=0.5;entryY=0;entryDx=0;entryDy=0;" edge="1" parent="1" source="AyrixzSQWaV738IrmU4d-13" target="AyrixzSQWaV738IrmU4d-10">
          <mxGeometry relative="1" as="geometry" />
        </mxCell>
        <mxCell id="AyrixzSQWaV738IrmU4d-13" value="Georeferencia" style="ellipse;whiteSpace=wrap;html=1;align=center;fillColor=#e1d5e7;strokeColor=#9673a6;aspect=fixed;fontSize=14;" vertex="1" parent="1">
          <mxGeometry x="388.5" y="294.5" width="90" height="90" as="geometry" />
        </mxCell>
        <mxCell id="AyrixzSQWaV738IrmU4d-46" style="edgeStyle=none;curved=1;rounded=0;orthogonalLoop=1;jettySize=auto;html=1;exitX=0.5;exitY=1;exitDx=0;exitDy=0;entryX=0.5;entryY=0;entryDx=0;entryDy=0;fontSize=12;startSize=8;endSize=8;endArrow=none;endFill=0;" edge="1" parent="1" source="AyrixzSQWaV738IrmU4d-15" target="AyrixzSQWaV738IrmU4d-11">
          <mxGeometry relative="1" as="geometry" />
        </mxCell>
        <mxCell id="AyrixzSQWaV738IrmU4d-15" value="Georeferencia" style="ellipse;whiteSpace=wrap;html=1;align=center;fillColor=#e1d5e7;strokeColor=#9673a6;aspect=fixed;fontSize=14;" vertex="1" parent="1">
          <mxGeometry x="665" y="294.5" width="90" height="90" as="geometry" />
        </mxCell>
        <mxCell id="AyrixzSQWaV738IrmU4d-43" style="edgeStyle=none;curved=1;rounded=0;orthogonalLoop=1;jettySize=auto;html=1;exitX=0.5;exitY=1;exitDx=0;exitDy=0;fontSize=12;startSize=8;endSize=8;endArrow=none;endFill=0;entryX=0.5;entryY=0;entryDx=0;entryDy=0;" edge="1" parent="1" source="AyrixzSQWaV738IrmU4d-16" target="AyrixzSQWaV738IrmU4d-13">
          <mxGeometry relative="1" as="geometry" />
        </mxCell>
        <mxCell id="AyrixzSQWaV738IrmU4d-16" value="Longitud" style="ellipse;whiteSpace=wrap;html=1;align=center;fillColor=#e1d5e7;strokeColor=#9673a6;aspect=fixed;fontSize=14;" vertex="1" parent="1">
          <mxGeometry x="354.5" y="180" width="65" height="65" as="geometry" />
        </mxCell>
        <mxCell id="AyrixzSQWaV738IrmU4d-42" style="edgeStyle=none;curved=1;rounded=0;orthogonalLoop=1;jettySize=auto;html=1;exitX=0.5;exitY=1;exitDx=0;exitDy=0;entryX=0.5;entryY=0;entryDx=0;entryDy=0;fontSize=12;startSize=8;endSize=8;endArrow=none;endFill=0;" edge="1" parent="1" source="AyrixzSQWaV738IrmU4d-17" target="AyrixzSQWaV738IrmU4d-13">
          <mxGeometry relative="1" as="geometry" />
        </mxCell>
        <mxCell id="AyrixzSQWaV738IrmU4d-17" value="Latitud" style="ellipse;whiteSpace=wrap;html=1;align=center;fillColor=#e1d5e7;strokeColor=#9673a6;fontSize=14;aspect=fixed;" vertex="1" parent="1">
          <mxGeometry x="447.5" y="180" width="65" height="65" as="geometry" />
        </mxCell>
        <mxCell id="AyrixzSQWaV738IrmU4d-44" style="edgeStyle=none;curved=1;rounded=0;orthogonalLoop=1;jettySize=auto;html=1;exitX=0.5;exitY=1;exitDx=0;exitDy=0;entryX=0.5;entryY=0;entryDx=0;entryDy=0;fontSize=12;startSize=8;endSize=8;endArrow=none;endFill=0;" edge="1" parent="1" source="AyrixzSQWaV738IrmU4d-18" target="AyrixzSQWaV738IrmU4d-15">
          <mxGeometry relative="1" as="geometry" />
        </mxCell>
        <mxCell id="AyrixzSQWaV738IrmU4d-18" value="Longitud" style="ellipse;whiteSpace=wrap;html=1;align=center;fillColor=#e1d5e7;strokeColor=#9673a6;aspect=fixed;fontSize=14;" vertex="1" parent="1">
          <mxGeometry x="631.5" y="180" width="65" height="65" as="geometry" />
        </mxCell>
        <mxCell id="AyrixzSQWaV738IrmU4d-45" style="edgeStyle=none;curved=1;rounded=0;orthogonalLoop=1;jettySize=auto;html=1;exitX=0.5;exitY=1;exitDx=0;exitDy=0;entryX=0.5;entryY=0;entryDx=0;entryDy=0;fontSize=12;startSize=8;endSize=8;endArrow=none;endFill=0;" edge="1" parent="1" source="AyrixzSQWaV738IrmU4d-19" target="AyrixzSQWaV738IrmU4d-15">
          <mxGeometry relative="1" as="geometry" />
        </mxCell>
        <mxCell id="AyrixzSQWaV738IrmU4d-19" value="Latitud" style="ellipse;whiteSpace=wrap;html=1;align=center;fillColor=#e1d5e7;strokeColor=#9673a6;aspect=fixed;fontSize=14;" vertex="1" parent="1">
          <mxGeometry x="723.5" y="180" width="65" height="65" as="geometry" />
        </mxCell>
        <mxCell id="AyrixzSQWaV738IrmU4d-53" style="edgeStyle=none;curved=1;rounded=0;orthogonalLoop=1;jettySize=auto;html=1;exitX=0.5;exitY=0;exitDx=0;exitDy=0;entryX=0.5;entryY=1;entryDx=0;entryDy=0;fontSize=12;startSize=8;endSize=8;endArrow=none;endFill=0;" edge="1" parent="1" source="AyrixzSQWaV738IrmU4d-20" target="AyrixzSQWaV738IrmU4d-12">
          <mxGeometry relative="1" as="geometry" />
        </mxCell>
        <mxCell id="AyrixzSQWaV738IrmU4d-20" value="Disponibilidad" style="ellipse;whiteSpace=wrap;html=1;align=center;fillColor=#e1d5e7;strokeColor=#9673a6;aspect=fixed;fontSize=14;" vertex="1" parent="1">
          <mxGeometry x="750" y="753" width="90" height="90" as="geometry" />
        </mxCell>
        <mxCell id="AyrixzSQWaV738IrmU4d-22" value="Se asigna" style="rhombus;whiteSpace=wrap;html=1;fillColor=#fff2cc;strokeColor=#d6b656;fontSize=14;aspect=fixed;" vertex="1" parent="1">
          <mxGeometry x="670" y="520" width="80" height="80" as="geometry" />
        </mxCell>
        <mxCell id="AyrixzSQWaV738IrmU4d-48" style="edgeStyle=none;curved=1;rounded=0;orthogonalLoop=1;jettySize=auto;html=1;exitX=0;exitY=0.5;exitDx=0;exitDy=0;entryX=1;entryY=0.5;entryDx=0;entryDy=0;fontSize=12;startSize=8;endSize=8;endArrow=none;endFill=0;" edge="1" parent="1" source="AyrixzSQWaV738IrmU4d-23" target="AyrixzSQWaV738IrmU4d-11">
          <mxGeometry relative="1" as="geometry" />
        </mxCell>
        <mxCell id="AyrixzSQWaV738IrmU4d-23" value="Nombre" style="ellipse;whiteSpace=wrap;html=1;align=center;fillColor=#e1d5e7;strokeColor=#9673a6;aspect=fixed;fontSize=14;" vertex="1" parent="1">
          <mxGeometry x="827" y="365" width="60" height="60" as="geometry" />
        </mxCell>
        <mxCell id="AyrixzSQWaV738IrmU4d-37" style="edgeStyle=none;curved=1;rounded=0;orthogonalLoop=1;jettySize=auto;html=1;entryX=0.5;entryY=0;entryDx=0;entryDy=0;fontSize=12;startSize=8;endSize=8;endArrow=none;endFill=0;exitX=0.5;exitY=1;exitDx=0;exitDy=0;" edge="1" parent="1" source="AyrixzSQWaV738IrmU4d-26" target="AyrixzSQWaV738IrmU4d-96">
          <mxGeometry relative="1" as="geometry">
            <mxPoint x="179" y="322" as="sourcePoint" />
          </mxGeometry>
        </mxCell>
        <mxCell id="AyrixzSQWaV738IrmU4d-26" value="Época&amp;nbsp;&lt;div&gt;del año&lt;/div&gt;" style="ellipse;whiteSpace=wrap;html=1;align=center;fillColor=#e1d5e7;strokeColor=#9673a6;aspect=fixed;fontSize=14;" vertex="1" parent="1">
          <mxGeometry x="207.5" y="312" width="65" height="65" as="geometry" />
        </mxCell>
        <mxCell id="AyrixzSQWaV738IrmU4d-38" style="edgeStyle=none;curved=1;rounded=0;orthogonalLoop=1;jettySize=auto;html=1;fontSize=12;startSize=8;endSize=8;endArrow=none;endFill=0;exitX=0.5;exitY=0;exitDx=0;exitDy=0;" edge="1" parent="1" source="AyrixzSQWaV738IrmU4d-109" target="AyrixzSQWaV738IrmU4d-87">
          <mxGeometry relative="1" as="geometry">
            <mxPoint x="-290" y="147" as="sourcePoint" />
          </mxGeometry>
        </mxCell>
        <mxCell id="AyrixzSQWaV738IrmU4d-39" style="edgeStyle=none;curved=1;rounded=0;orthogonalLoop=1;jettySize=auto;html=1;exitX=0.5;exitY=0;exitDx=0;exitDy=0;fontSize=12;startSize=8;endSize=8;endArrow=none;endFill=0;entryX=0;entryY=1;entryDx=0;entryDy=0;" edge="1" parent="1" source="AyrixzSQWaV738IrmU4d-34" target="AyrixzSQWaV738IrmU4d-109">
          <mxGeometry relative="1" as="geometry">
            <mxPoint x="-260.50000000000114" y="732.0000000000009" as="targetPoint" />
          </mxGeometry>
        </mxCell>
        <mxCell id="AyrixzSQWaV738IrmU4d-34" value="Vivero" style="ellipse;whiteSpace=wrap;html=1;align=center;fillColor=#e1d5e7;strokeColor=#9673a6;aspect=fixed;fontSize=14;" vertex="1" parent="1">
          <mxGeometry x="-319.5" y="779.5" width="55" height="55" as="geometry" />
        </mxCell>
        <mxCell id="AyrixzSQWaV738IrmU4d-35" value="Zona" style="ellipse;whiteSpace=wrap;html=1;align=center;fillColor=#e1d5e7;strokeColor=#9673a6;aspect=fixed;fontSize=14;" vertex="1" parent="1">
          <mxGeometry x="-184.5" y="783.5" width="55" height="55" as="geometry" />
        </mxCell>
        <mxCell id="AyrixzSQWaV738IrmU4d-41" style="edgeStyle=none;curved=1;rounded=0;orthogonalLoop=1;jettySize=auto;html=1;exitX=0.5;exitY=0;exitDx=0;exitDy=0;entryX=0.5;entryY=1;entryDx=0;entryDy=0;fontSize=12;startSize=8;endSize=8;endArrow=none;endFill=0;" edge="1" parent="1" source="AyrixzSQWaV738IrmU4d-36" target="AyrixzSQWaV738IrmU4d-109">
          <mxGeometry relative="1" as="geometry">
            <mxPoint x="-224.5" y="750" as="targetPoint" />
          </mxGeometry>
        </mxCell>
        <mxCell id="AyrixzSQWaV738IrmU4d-36" value="Fecha" style="ellipse;whiteSpace=wrap;html=1;align=center;fillColor=#e1d5e7;strokeColor=#9673a6;aspect=fixed;fontSize=14;" vertex="1" parent="1">
          <mxGeometry x="-250.5" y="779.5" width="55" height="55" as="geometry" />
        </mxCell>
        <mxCell id="AyrixzSQWaV738IrmU4d-40" style="edgeStyle=none;curved=1;rounded=0;orthogonalLoop=1;jettySize=auto;html=1;exitX=0.5;exitY=0;exitDx=0;exitDy=0;entryX=1;entryY=1;entryDx=0;entryDy=0;fontSize=12;startSize=8;endSize=8;endArrow=none;endFill=0;" edge="1" parent="1" source="AyrixzSQWaV738IrmU4d-35" target="AyrixzSQWaV738IrmU4d-109">
          <mxGeometry relative="1" as="geometry">
            <mxPoint x="-189.49" y="728.0400000000002" as="targetPoint" />
          </mxGeometry>
        </mxCell>
        <mxCell id="AyrixzSQWaV738IrmU4d-52" style="rounded=0;orthogonalLoop=1;jettySize=auto;html=1;exitX=0.5;exitY=1;exitDx=0;exitDy=0;entryX=0.5;entryY=0;entryDx=0;entryDy=0;fontSize=12;startSize=8;endSize=8;endArrow=none;endFill=0;" edge="1" parent="1" source="AyrixzSQWaV738IrmU4d-22" target="AyrixzSQWaV738IrmU4d-12">
          <mxGeometry relative="1" as="geometry" />
        </mxCell>
        <mxCell id="AyrixzSQWaV738IrmU4d-54" value="Se divide" style="rhombus;whiteSpace=wrap;html=1;fillColor=#fff2cc;strokeColor=#d6b656;fontSize=14;aspect=fixed;" vertex="1" parent="1">
          <mxGeometry x="530" y="415" width="80" height="80" as="geometry" />
        </mxCell>
        <mxCell id="AyrixzSQWaV738IrmU4d-74" style="edgeStyle=none;curved=1;rounded=0;orthogonalLoop=1;jettySize=auto;html=1;exitX=1;exitY=0.5;exitDx=0;exitDy=0;entryX=0;entryY=0.5;entryDx=0;entryDy=0;fontSize=12;startSize=8;endSize=8;endArrow=none;endFill=0;" edge="1" parent="1" source="AyrixzSQWaV738IrmU4d-57" target="AyrixzSQWaV738IrmU4d-70">
          <mxGeometry relative="1" as="geometry" />
        </mxCell>
        <mxCell id="AyrixzSQWaV738IrmU4d-107" style="edgeStyle=none;curved=1;rounded=0;orthogonalLoop=1;jettySize=auto;html=1;exitX=0;exitY=0.5;exitDx=0;exitDy=0;entryX=1;entryY=0.5;entryDx=0;entryDy=0;fontSize=12;startSize=8;endSize=8;endArrow=none;endFill=0;" edge="1" parent="1" source="AyrixzSQWaV738IrmU4d-57" target="AyrixzSQWaV738IrmU4d-65">
          <mxGeometry relative="1" as="geometry" />
        </mxCell>
        <mxCell id="Z_fFSw_3jqZQKLgusjVg-7" style="rounded=0;orthogonalLoop=1;jettySize=auto;html=1;entryX=0.5;entryY=1;entryDx=0;entryDy=0;endArrow=none;endFill=0;exitX=0.5;exitY=0;exitDx=0;exitDy=0;" edge="1" parent="1" source="AyrixzSQWaV738IrmU4d-57" target="Z_fFSw_3jqZQKLgusjVg-6">
          <mxGeometry relative="1" as="geometry" />
        </mxCell>
        <mxCell id="Z_fFSw_3jqZQKLgusjVg-9" style="rounded=0;orthogonalLoop=1;jettySize=auto;html=1;entryX=0.5;entryY=1;entryDx=0;entryDy=0;endArrow=none;endFill=0;exitX=0.5;exitY=0;exitDx=0;exitDy=0;" edge="1" parent="1" source="AyrixzSQWaV738IrmU4d-57" target="Z_fFSw_3jqZQKLgusjVg-8">
          <mxGeometry relative="1" as="geometry" />
        </mxCell>
        <mxCell id="AyrixzSQWaV738IrmU4d-57" value="Cliente" style="rounded=0;whiteSpace=wrap;html=1;aspect=fixed;fontSize=14;fillColor=#e1d5e7;strokeColor=#9673a6;" vertex="1" parent="1">
          <mxGeometry x="1141" y="640" width="100" height="50" as="geometry" />
        </mxCell>
        <mxCell id="AyrixzSQWaV738IrmU4d-76" style="edgeStyle=none;curved=1;rounded=0;orthogonalLoop=1;jettySize=auto;html=1;exitX=0.5;exitY=1;exitDx=0;exitDy=0;entryX=0.5;entryY=0;entryDx=0;entryDy=0;fontSize=12;startSize=8;endSize=8;endArrow=none;endFill=0;" edge="1" parent="1" source="AyrixzSQWaV738IrmU4d-60" target="Z_fFSw_3jqZQKLgusjVg-62">
          <mxGeometry relative="1" as="geometry">
            <mxPoint x="1475" y="552.5" as="targetPoint" />
          </mxGeometry>
        </mxCell>
        <mxCell id="AyrixzSQWaV738IrmU4d-60" value="Bonificaciones" style="ellipse;whiteSpace=wrap;html=1;align=center;fillColor=#e1d5e7;strokeColor=#9673a6;aspect=fixed;fontSize=14;dashed=1;dashPattern=12 12;" vertex="1" parent="1">
          <mxGeometry x="1430" y="430" width="90" height="90" as="geometry" />
        </mxCell>
        <mxCell id="AyrixzSQWaV738IrmU4d-77" style="edgeStyle=none;curved=1;rounded=0;orthogonalLoop=1;jettySize=auto;html=1;exitX=0.5;exitY=1;exitDx=0;exitDy=0;entryX=0.5;entryY=0;entryDx=0;entryDy=0;fontSize=12;startSize=8;endSize=8;endArrow=none;endFill=0;" edge="1" parent="1" source="AyrixzSQWaV738IrmU4d-116" target="AyrixzSQWaV738IrmU4d-57">
          <mxGeometry relative="1" as="geometry">
            <mxPoint x="1344.9999999999995" y="550" as="sourcePoint" />
          </mxGeometry>
        </mxCell>
        <mxCell id="AyrixzSQWaV738IrmU4d-62" value="Pedidos que gestiona a Tajinaste Plus" style="ellipse;whiteSpace=wrap;html=1;align=center;fillColor=#e1d5e7;strokeColor=#9673a6;aspect=fixed;fontSize=14;" vertex="1" parent="1">
          <mxGeometry x="1" y="753" width="98" height="98" as="geometry" />
        </mxCell>
        <mxCell id="AyrixzSQWaV738IrmU4d-64" style="edgeStyle=none;curved=1;rounded=0;orthogonalLoop=1;jettySize=auto;html=1;exitX=0.5;exitY=0;exitDx=0;exitDy=0;entryX=0.5;entryY=1;entryDx=0;entryDy=0;fontSize=12;startSize=8;endSize=8;endArrow=none;endFill=0;" edge="1" parent="1" source="AyrixzSQWaV738IrmU4d-62" target="Z_fFSw_3jqZQKLgusjVg-66">
          <mxGeometry relative="1" as="geometry">
            <mxPoint x="50" y="690" as="targetPoint" />
          </mxGeometry>
        </mxCell>
        <mxCell id="AyrixzSQWaV738IrmU4d-67" style="edgeStyle=none;curved=1;rounded=0;orthogonalLoop=1;jettySize=auto;html=1;exitX=0;exitY=0.5;exitDx=0;exitDy=0;fontSize=12;startSize=8;endSize=8;endArrow=none;endFill=0;entryX=1;entryY=0.5;entryDx=0;entryDy=0;" edge="1" parent="1" source="AyrixzSQWaV738IrmU4d-65" target="AyrixzSQWaV738IrmU4d-12">
          <mxGeometry relative="1" as="geometry" />
        </mxCell>
        <mxCell id="AyrixzSQWaV738IrmU4d-65" value="Compra" style="rhombus;whiteSpace=wrap;html=1;fillColor=#fff2cc;strokeColor=#d6b656;fontSize=14;aspect=fixed;" vertex="1" parent="1">
          <mxGeometry x="910" y="625" width="80" height="80" as="geometry" />
        </mxCell>
        <mxCell id="AyrixzSQWaV738IrmU4d-68" value="" style="endArrow=none;html=1;rounded=0;edgeStyle=orthogonalEdgeStyle;curved=1;" edge="1" parent="1">
          <mxGeometry width="50" height="50" relative="1" as="geometry">
            <mxPoint x="1360" y="745" as="sourcePoint" />
            <mxPoint x="1360" y="585" as="targetPoint" />
            <Array as="points">
              <mxPoint x="1390" y="745" />
              <mxPoint x="1390" y="585" />
            </Array>
          </mxGeometry>
        </mxCell>
        <mxCell id="AyrixzSQWaV738IrmU4d-72" style="edgeStyle=none;curved=1;rounded=0;orthogonalLoop=1;jettySize=auto;html=1;exitX=1;exitY=0.5;exitDx=0;exitDy=0;entryX=0;entryY=0.5;entryDx=0;entryDy=0;fontSize=12;startSize=8;endSize=8;endArrow=none;endFill=0;" edge="1" parent="1" source="AyrixzSQWaV738IrmU4d-70" target="Z_fFSw_3jqZQKLgusjVg-62">
          <mxGeometry relative="1" as="geometry">
            <mxPoint x="1425" y="577.5" as="targetPoint" />
          </mxGeometry>
        </mxCell>
        <mxCell id="AyrixzSQWaV738IrmU4d-73" style="edgeStyle=none;curved=1;rounded=0;orthogonalLoop=1;jettySize=auto;html=1;exitX=1;exitY=0.5;exitDx=0;exitDy=0;entryX=0;entryY=0.5;entryDx=0;entryDy=0;fontSize=12;startSize=8;endSize=8;endArrow=none;endFill=0;" edge="1" parent="1" source="AyrixzSQWaV738IrmU4d-70">
          <mxGeometry relative="1" as="geometry">
            <mxPoint x="1425" y="755" as="targetPoint" />
          </mxGeometry>
        </mxCell>
        <mxCell id="AyrixzSQWaV738IrmU4d-70" value="" style="triangle;whiteSpace=wrap;html=1;fillColor=#e1d5e7;strokeColor=#9673a6;" vertex="1" parent="1">
          <mxGeometry x="1290" y="625" width="60" height="80" as="geometry" />
        </mxCell>
        <mxCell id="AyrixzSQWaV738IrmU4d-75" style="edgeStyle=none;curved=1;rounded=0;orthogonalLoop=1;jettySize=auto;html=1;exitX=0.5;exitY=0;exitDx=0;exitDy=0;entryX=0.5;entryY=1;entryDx=0;entryDy=0;fontSize=12;startSize=8;endSize=8;endArrow=none;endFill=0;" edge="1" parent="1" source="AyrixzSQWaV738IrmU4d-71" target="AyrixzSQWaV738IrmU4d-70">
          <mxGeometry relative="1" as="geometry" />
        </mxCell>
        <mxCell id="AyrixzSQWaV738IrmU4d-71" value="Forma parte del programa Tajinaste Plus" style="ellipse;whiteSpace=wrap;html=1;align=center;fillColor=#e1d5e7;strokeColor=#9673a6;aspect=fixed;fontSize=14;" vertex="1" parent="1">
          <mxGeometry x="1271" y="757" width="98" height="98" as="geometry" />
        </mxCell>
        <mxCell id="AyrixzSQWaV738IrmU4d-101" style="edgeStyle=none;curved=1;rounded=0;orthogonalLoop=1;jettySize=auto;html=1;exitX=1;exitY=0.5;exitDx=0;exitDy=0;fontSize=12;startSize=8;endSize=8;endArrow=none;endFill=0;" edge="1" parent="1" source="Z_fFSw_3jqZQKLgusjVg-65" target="AyrixzSQWaV738IrmU4d-96">
          <mxGeometry relative="1" as="geometry">
            <mxPoint x="105" y="455" as="sourcePoint" />
          </mxGeometry>
        </mxCell>
        <mxCell id="AyrixzSQWaV738IrmU4d-100" style="edgeStyle=none;curved=1;rounded=0;orthogonalLoop=1;jettySize=auto;html=1;exitX=1;exitY=0.5;exitDx=0;exitDy=0;entryX=0;entryY=0.5;entryDx=0;entryDy=0;fontSize=12;startSize=8;endSize=8;endArrow=none;endFill=0;" edge="1" parent="1" target="AyrixzSQWaV738IrmU4d-95">
          <mxGeometry relative="1" as="geometry">
            <mxPoint x="100" y="665" as="sourcePoint" />
          </mxGeometry>
        </mxCell>
        <mxCell id="AyrixzSQWaV738IrmU4d-89" style="edgeStyle=none;curved=1;rounded=0;orthogonalLoop=1;jettySize=auto;html=1;exitX=1;exitY=0.5;exitDx=0;exitDy=0;entryX=0;entryY=0.5;entryDx=0;entryDy=0;fontSize=12;startSize=8;endSize=8;endArrow=none;endFill=0;" edge="1" parent="1" source="AyrixzSQWaV738IrmU4d-85" target="Z_fFSw_3jqZQKLgusjVg-65">
          <mxGeometry relative="1" as="geometry">
            <mxPoint x="5" y="455" as="targetPoint" />
          </mxGeometry>
        </mxCell>
        <mxCell id="AyrixzSQWaV738IrmU4d-91" style="edgeStyle=none;curved=1;rounded=0;orthogonalLoop=1;jettySize=auto;html=1;exitX=0.5;exitY=1;exitDx=0;exitDy=0;entryX=0.5;entryY=0;entryDx=0;entryDy=0;fontSize=12;startSize=8;endSize=8;endArrow=none;endFill=0;" edge="1" parent="1" source="AyrixzSQWaV738IrmU4d-85" target="AyrixzSQWaV738IrmU4d-88">
          <mxGeometry relative="1" as="geometry" />
        </mxCell>
        <mxCell id="AyrixzSQWaV738IrmU4d-85" value="" style="triangle;whiteSpace=wrap;html=1;fillColor=#e1d5e7;strokeColor=#9673a6;" vertex="1" parent="1">
          <mxGeometry x="-95" y="510" width="60" height="80" as="geometry" />
        </mxCell>
        <mxCell id="AyrixzSQWaV738IrmU4d-86" value="" style="ellipse;whiteSpace=wrap;html=1;align=center;fillColor=#e1d5e7;strokeColor=#9673a6;aspect=fixed;fontSize=14;" vertex="1" parent="1">
          <mxGeometry x="-125" y="535" width="30" height="30" as="geometry" />
        </mxCell>
        <mxCell id="AyrixzSQWaV738IrmU4d-92" style="edgeStyle=none;curved=1;rounded=0;orthogonalLoop=1;jettySize=auto;html=1;exitX=1;exitY=0.5;exitDx=0;exitDy=0;entryX=0;entryY=0.5;entryDx=0;entryDy=0;fontSize=12;startSize=8;endSize=8;endArrow=none;endFill=0;" edge="1" parent="1" source="AyrixzSQWaV738IrmU4d-87" target="AyrixzSQWaV738IrmU4d-86">
          <mxGeometry relative="1" as="geometry" />
        </mxCell>
        <mxCell id="Z_fFSw_3jqZQKLgusjVg-14" style="rounded=0;orthogonalLoop=1;jettySize=auto;html=1;exitX=0.5;exitY=0;exitDx=0;exitDy=0;entryX=0.5;entryY=1;entryDx=0;entryDy=0;endArrow=none;endFill=0;" edge="1" parent="1" source="AyrixzSQWaV738IrmU4d-87" target="Z_fFSw_3jqZQKLgusjVg-13">
          <mxGeometry relative="1" as="geometry" />
        </mxCell>
        <mxCell id="AyrixzSQWaV738IrmU4d-87" value="Empleado" style="rounded=0;whiteSpace=wrap;html=1;aspect=fixed;fontSize=14;fillColor=#e1d5e7;strokeColor=#9673a6;" vertex="1" parent="1">
          <mxGeometry x="-276" y="524.5" width="100" height="50" as="geometry" />
        </mxCell>
        <mxCell id="AyrixzSQWaV738IrmU4d-88" value="Función" style="ellipse;whiteSpace=wrap;html=1;align=center;fillColor=#e1d5e7;strokeColor=#9673a6;aspect=fixed;fontSize=14;" vertex="1" parent="1">
          <mxGeometry x="-95" y="635" width="60" height="60" as="geometry" />
        </mxCell>
        <mxCell id="AyrixzSQWaV738IrmU4d-90" style="edgeStyle=none;curved=1;rounded=0;orthogonalLoop=1;jettySize=auto;html=1;exitX=1;exitY=0.5;exitDx=0;exitDy=0;entryX=0;entryY=0.5;entryDx=0;entryDy=0;fontSize=12;startSize=8;endSize=8;endArrow=none;endFill=0;" edge="1" parent="1" source="AyrixzSQWaV738IrmU4d-85" target="Z_fFSw_3jqZQKLgusjVg-66">
          <mxGeometry relative="1" as="geometry">
            <mxPoint y="672" as="targetPoint" />
          </mxGeometry>
        </mxCell>
        <mxCell id="AyrixzSQWaV738IrmU4d-99" style="edgeStyle=none;curved=1;rounded=0;orthogonalLoop=1;jettySize=auto;html=1;exitX=1;exitY=0.5;exitDx=0;exitDy=0;fontSize=12;startSize=8;endSize=8;endArrow=none;endFill=0;entryX=0;entryY=0.5;entryDx=0;entryDy=0;" edge="1" parent="1" source="AyrixzSQWaV738IrmU4d-95" target="AyrixzSQWaV738IrmU4d-12">
          <mxGeometry relative="1" as="geometry">
            <mxPoint x="700" y="1110" as="targetPoint" />
          </mxGeometry>
        </mxCell>
        <mxCell id="AyrixzSQWaV738IrmU4d-95" value="Vende" style="rhombus;whiteSpace=wrap;html=1;fillColor=#fff2cc;strokeColor=#d6b656;fontSize=14;aspect=fixed;" vertex="1" parent="1">
          <mxGeometry x="380" y="625" width="80" height="80" as="geometry" />
        </mxCell>
        <mxCell id="AyrixzSQWaV738IrmU4d-102" style="edgeStyle=none;curved=1;rounded=0;orthogonalLoop=1;jettySize=auto;html=1;exitX=1;exitY=0.5;exitDx=0;exitDy=0;fontSize=12;startSize=8;endSize=8;endArrow=none;endFill=0;entryX=0;entryY=0.5;entryDx=0;entryDy=0;" edge="1" parent="1" source="AyrixzSQWaV738IrmU4d-96" target="AyrixzSQWaV738IrmU4d-10">
          <mxGeometry relative="1" as="geometry">
            <mxPoint x="690" y="965" as="targetPoint" />
          </mxGeometry>
        </mxCell>
        <mxCell id="JBx9VISIUxRQKYBw0xRK-1" style="edgeStyle=orthogonalEdgeStyle;rounded=0;orthogonalLoop=1;jettySize=auto;html=1;exitX=0.5;exitY=1;exitDx=0;exitDy=0;entryX=0.25;entryY=1;entryDx=0;entryDy=0;endArrow=none;endFill=0;" edge="1" parent="1" source="AyrixzSQWaV738IrmU4d-96" target="AyrixzSQWaV738IrmU4d-11">
          <mxGeometry relative="1" as="geometry" />
        </mxCell>
        <mxCell id="AyrixzSQWaV738IrmU4d-96" value="Destinado" style="rhombus;whiteSpace=wrap;html=1;fillColor=#fff2cc;strokeColor=#d6b656;fontSize=14;aspect=fixed;" vertex="1" parent="1">
          <mxGeometry x="200" y="415" width="80" height="80" as="geometry" />
        </mxCell>
        <mxCell id="AyrixzSQWaV738IrmU4d-109" value="Historial" style="ellipse;shape=doubleEllipse;margin=3;whiteSpace=wrap;html=1;align=center;aspect=fixed;fillColor=#e1d5e7;strokeColor=#9673a6;fontSize=14;" vertex="1" parent="1">
          <mxGeometry x="-264.5" y="640" width="80" height="80" as="geometry" />
        </mxCell>
        <mxCell id="AyrixzSQWaV738IrmU4d-111" style="edgeStyle=none;curved=1;rounded=0;orthogonalLoop=1;jettySize=auto;html=1;exitX=0.5;exitY=1;exitDx=0;exitDy=0;entryX=0.5;entryY=0;entryDx=0;entryDy=0;fontSize=12;startSize=8;endSize=8;endArrow=none;endFill=0;" edge="1" parent="1" source="AyrixzSQWaV738IrmU4d-110" target="AyrixzSQWaV738IrmU4d-87">
          <mxGeometry relative="1" as="geometry" />
        </mxCell>
        <mxCell id="AyrixzSQWaV738IrmU4d-110" value="Productividad" style="ellipse;whiteSpace=wrap;html=1;align=center;fillColor=#e1d5e7;strokeColor=#9673a6;aspect=fixed;fontSize=14;dashed=1;dashPattern=12 12;" vertex="1" parent="1">
          <mxGeometry x="-176" y="385" width="90" height="90" as="geometry" />
        </mxCell>
        <mxCell id="AyrixzSQWaV738IrmU4d-112" value="Productividad" style="ellipse;whiteSpace=wrap;html=1;align=center;fillColor=#e1d5e7;strokeColor=#9673a6;aspect=fixed;fontSize=14;dashed=1;dashPattern=12 12;" vertex="1" parent="1">
          <mxGeometry x="820" y="484.5" width="90" height="90" as="geometry" />
        </mxCell>
        <mxCell id="AyrixzSQWaV738IrmU4d-116" value="Pedidos" style="ellipse;shape=doubleEllipse;margin=3;whiteSpace=wrap;html=1;align=center;aspect=fixed;fillColor=#e1d5e7;strokeColor=#9673a6;fontSize=14;" vertex="1" parent="1">
          <mxGeometry x="1241" y="537.5" width="65" height="65" as="geometry" />
        </mxCell>
        <mxCell id="Z_fFSw_3jqZQKLgusjVg-2" value="Compra" style="text;html=1;align=center;verticalAlign=middle;whiteSpace=wrap;rounded=0;fontSize=14;aspect=fixed;" vertex="1" parent="1">
          <mxGeometry x="810" y="640" width="60" height="30" as="geometry" />
        </mxCell>
        <mxCell id="Z_fFSw_3jqZQKLgusjVg-3" value="Es comprado por" style="text;html=1;align=center;verticalAlign=middle;whiteSpace=wrap;rounded=0;fontSize=14;aspect=fixed;" vertex="1" parent="1">
          <mxGeometry x="993" y="627.5" width="110" height="55" as="geometry" />
        </mxCell>
        <mxCell id="Z_fFSw_3jqZQKLgusjVg-5" value="&lt;h1 style=&quot;margin-top: 0px; line-height: 100%;&quot;&gt;&lt;font style=&quot;font-size: 20px;&quot;&gt;Restricción semántica&lt;/font&gt;&lt;/h1&gt;&lt;p style=&quot;line-height: 20%;&quot;&gt;&lt;font face=&quot;Montserrat, sans-serif&quot;&gt;&lt;span style=&quot;font-size: 14px; white-space-collapse: preserve;&quot;&gt;Un empleado nunca va a tener &lt;/span&gt;&lt;/font&gt;&lt;/p&gt;&lt;p style=&quot;line-height: 20%;&quot;&gt;&lt;font face=&quot;Montserrat, sans-serif&quot;&gt;&lt;span style=&quot;font-size: 14px; white-space-collapse: preserve;&quot;&gt;dos destinos en la misma época&lt;/span&gt;&lt;/font&gt;&lt;br&gt;&lt;/p&gt;" style="text;html=1;whiteSpace=wrap;overflow=hidden;rounded=0;strokeColor=default;verticalAlign=middle;spacingRight=3;spacingLeft=3;align=center;" vertex="1" parent="1">
          <mxGeometry x="42.5" y="228" width="230" height="70" as="geometry" />
        </mxCell>
        <mxCell id="Z_fFSw_3jqZQKLgusjVg-6" value="&lt;font style=&quot;font-size: 14px;&quot;&gt;DNI&lt;/font&gt;" style="ellipse;whiteSpace=wrap;html=1;align=center;fillColor=#0050ef;strokeColor=#001DBC;fontColor=#ffffff;aspect=fixed;fontSize=14;" vertex="1" parent="1">
          <mxGeometry x="1081" y="540" width="60" height="60" as="geometry" />
        </mxCell>
        <mxCell id="Z_fFSw_3jqZQKLgusjVg-8" value="&lt;font style=&quot;font-size: 14px;&quot;&gt;Nombre&lt;/font&gt;" style="ellipse;whiteSpace=wrap;html=1;align=center;fillColor=#e1d5e7;strokeColor=#9673a6;aspect=fixed;fontSize=14;" vertex="1" parent="1">
          <mxGeometry x="1161" y="540" width="60" height="60" as="geometry" />
        </mxCell>
        <mxCell id="Z_fFSw_3jqZQKLgusjVg-10" value="&lt;font style=&quot;font-size: 14px;&quot;&gt;Código&lt;/font&gt;" style="ellipse;whiteSpace=wrap;html=1;align=center;fillColor=#0050ef;strokeColor=#001DBC;fontColor=#ffffff;aspect=fixed;fontSize=14;" vertex="1" parent="1">
          <mxGeometry x="550" y="757" width="50" height="50" as="geometry" />
        </mxCell>
        <mxCell id="Z_fFSw_3jqZQKLgusjVg-15" style="rounded=0;orthogonalLoop=1;jettySize=auto;html=1;entryX=0.5;entryY=0;entryDx=0;entryDy=0;endArrow=none;endFill=0;" edge="1" parent="1" source="Z_fFSw_3jqZQKLgusjVg-12" target="AyrixzSQWaV738IrmU4d-87">
          <mxGeometry relative="1" as="geometry" />
        </mxCell>
        <mxCell id="Z_fFSw_3jqZQKLgusjVg-12" value="&lt;font style=&quot;font-size: 14px;&quot;&gt;DNI&lt;/font&gt;" style="ellipse;whiteSpace=wrap;html=1;align=center;fillColor=#0050ef;strokeColor=#001DBC;fontColor=#ffffff;aspect=fixed;fontSize=14;" vertex="1" parent="1">
          <mxGeometry x="-336" y="400" width="60" height="60" as="geometry" />
        </mxCell>
        <mxCell id="Z_fFSw_3jqZQKLgusjVg-13" value="&lt;font style=&quot;font-size: 14px;&quot;&gt;Nombre&lt;/font&gt;" style="ellipse;whiteSpace=wrap;html=1;align=center;fillColor=#e1d5e7;strokeColor=#9673a6;aspect=fixed;fontSize=14;" vertex="1" parent="1">
          <mxGeometry x="-254.5" y="400" width="60" height="60" as="geometry" />
        </mxCell>
        <mxCell id="JBx9VISIUxRQKYBw0xRK-2" value="" style="endArrow=classic;html=1;rounded=0;edgeStyle=orthogonalEdgeStyle;curved=1;" edge="1" parent="1">
          <mxGeometry width="50" height="50" relative="1" as="geometry">
            <mxPoint x="280" y="405" as="sourcePoint" />
            <mxPoint x="280" y="545" as="targetPoint" />
            <Array as="points">
              <mxPoint x="310" y="405" />
              <mxPoint x="310" y="545" />
            </Array>
          </mxGeometry>
        </mxCell>
        <mxCell id="Z_fFSw_3jqZQKLgusjVg-18" value="&lt;h1 style=&quot;margin-top: 0px; line-height: 100%;&quot;&gt;&lt;font style=&quot;font-size: 20px;&quot;&gt;Restricción semántica&lt;/font&gt;&lt;/h1&gt;&lt;p style=&quot;line-height: 100%;&quot;&gt;&lt;font face=&quot;Montserrat, sans-serif&quot;&gt;&lt;span style=&quot;font-size: 14px; white-space-collapse: preserve;&quot;&gt;La zona en la que trabaja un jornalero debe estar en el vivero en el que trabaja.&lt;/span&gt;&lt;/font&gt;&lt;/p&gt;" style="text;html=1;whiteSpace=wrap;overflow=hidden;rounded=0;strokeColor=default;verticalAlign=middle;spacingRight=3;spacingLeft=3;align=center;" vertex="1" parent="1">
          <mxGeometry x="340" y="526" width="230" height="85" as="geometry" />
        </mxCell>
        <mxCell id="Z_fFSw_3jqZQKLgusjVg-20" style="rounded=0;orthogonalLoop=1;jettySize=auto;html=1;exitX=0;exitY=0.5;exitDx=0;exitDy=0;entryX=1;entryY=0.5;entryDx=0;entryDy=0;endArrow=none;endFill=0;" edge="1" parent="1" source="Z_fFSw_3jqZQKLgusjVg-19" target="AyrixzSQWaV738IrmU4d-11">
          <mxGeometry relative="1" as="geometry" />
        </mxCell>
        <mxCell id="Z_fFSw_3jqZQKLgusjVg-19" value="&lt;font style=&quot;font-size: 14px;&quot;&gt;Código&lt;/font&gt;" style="ellipse;whiteSpace=wrap;html=1;align=center;fillColor=#0050ef;strokeColor=#001DBC;fontColor=#ffffff;aspect=fixed;fontSize=14;" vertex="1" parent="1">
          <mxGeometry x="827" y="430" width="50" height="50" as="geometry" />
        </mxCell>
        <mxCell id="Z_fFSw_3jqZQKLgusjVg-22" style="rounded=0;orthogonalLoop=1;jettySize=auto;html=1;exitX=0.5;exitY=1;exitDx=0;exitDy=0;entryX=0.5;entryY=0;entryDx=0;entryDy=0;endArrow=none;endFill=0;" edge="1" parent="1" source="Z_fFSw_3jqZQKLgusjVg-21" target="AyrixzSQWaV738IrmU4d-10">
          <mxGeometry relative="1" as="geometry" />
        </mxCell>
        <mxCell id="Z_fFSw_3jqZQKLgusjVg-21" value="&lt;font style=&quot;font-size: 14px;&quot;&gt;Código&lt;/font&gt;" style="ellipse;whiteSpace=wrap;html=1;align=center;fillColor=#0050ef;strokeColor=#001DBC;fontColor=#ffffff;aspect=fixed;fontSize=14;" vertex="1" parent="1">
          <mxGeometry x="318" y="319" width="50" height="50" as="geometry" />
        </mxCell>
        <mxCell id="Z_fFSw_3jqZQKLgusjVg-26" value="1:N" style="text;html=1;align=center;verticalAlign=middle;whiteSpace=wrap;rounded=0;fontSize=14;aspect=fixed;" vertex="1" parent="1">
          <mxGeometry x="693" y="617" width="60" height="30" as="geometry" />
        </mxCell>
        <mxCell id="Z_fFSw_3jqZQKLgusjVg-27" value="0:N" style="text;html=1;align=center;verticalAlign=middle;whiteSpace=wrap;rounded=0;fontSize=14;aspect=fixed;" vertex="1" parent="1">
          <mxGeometry x="695" y="475" width="60" height="30" as="geometry" />
        </mxCell>
        <mxCell id="Z_fFSw_3jqZQKLgusjVg-30" value="1:N" style="text;html=1;align=center;verticalAlign=middle;whiteSpace=wrap;rounded=0;fontSize=14;aspect=fixed;" vertex="1" parent="1">
          <mxGeometry x="618" y="432" width="60" height="30" as="geometry" />
        </mxCell>
        <mxCell id="Z_fFSw_3jqZQKLgusjVg-34" value="1:1" style="text;html=1;align=center;verticalAlign=middle;whiteSpace=wrap;rounded=0;fontSize=14;aspect=fixed;" vertex="1" parent="1">
          <mxGeometry x="467" y="432" width="60" height="30" as="geometry" />
        </mxCell>
        <mxCell id="Z_fFSw_3jqZQKLgusjVg-35" value="1:N" style="text;html=1;align=center;verticalAlign=middle;whiteSpace=wrap;rounded=0;fontSize=14;aspect=fixed;" vertex="1" parent="1">
          <mxGeometry x="225" y="490" width="60" height="30" as="geometry" />
        </mxCell>
        <mxCell id="Z_fFSw_3jqZQKLgusjVg-37" value="1:N" style="text;html=1;align=center;verticalAlign=middle;whiteSpace=wrap;rounded=0;fontSize=14;aspect=fixed;" vertex="1" parent="1">
          <mxGeometry x="642" y="490" width="60" height="30" as="geometry" />
        </mxCell>
        <mxCell id="Z_fFSw_3jqZQKLgusjVg-39" value="1:N" style="text;html=1;align=center;verticalAlign=middle;whiteSpace=wrap;rounded=0;fontSize=14;aspect=fixed;" vertex="1" parent="1">
          <mxGeometry x="92" y="432" width="60" height="30" as="geometry" />
        </mxCell>
        <mxCell id="Z_fFSw_3jqZQKLgusjVg-40" value="1:N" style="text;html=1;align=center;verticalAlign=middle;whiteSpace=wrap;rounded=0;fontSize=14;aspect=fixed;" vertex="1" parent="1">
          <mxGeometry x="340" y="430" width="60" height="30" as="geometry" />
        </mxCell>
        <mxCell id="Z_fFSw_3jqZQKLgusjVg-42" value="&lt;font style=&quot;font-size: 14px;&quot;&gt;Stock&lt;/font&gt;" style="ellipse;whiteSpace=wrap;html=1;align=center;fillColor=#e1d5e7;strokeColor=#9673a6;aspect=fixed;fontSize=14;" vertex="1" parent="1">
          <mxGeometry x="618" y="757" width="50" height="50" as="geometry" />
        </mxCell>
        <mxCell id="Z_fFSw_3jqZQKLgusjVg-45" style="rounded=0;orthogonalLoop=1;jettySize=auto;html=1;exitX=0.5;exitY=0;exitDx=0;exitDy=0;entryX=0.5;entryY=1;entryDx=0;entryDy=0;endArrow=none;endFill=0;" edge="1" parent="1" source="Z_fFSw_3jqZQKLgusjVg-44" target="AyrixzSQWaV738IrmU4d-12">
          <mxGeometry relative="1" as="geometry" />
        </mxCell>
        <mxCell id="Z_fFSw_3jqZQKLgusjVg-44" value="&lt;font style=&quot;font-size: 14px;&quot;&gt;Precio&lt;/font&gt;" style="ellipse;whiteSpace=wrap;html=1;align=center;fillColor=#e1d5e7;strokeColor=#9673a6;aspect=fixed;fontSize=14;" vertex="1" parent="1">
          <mxGeometry x="685" y="757" width="50" height="50" as="geometry" />
        </mxCell>
        <mxCell id="Z_fFSw_3jqZQKLgusjVg-46" value="0:N" style="text;html=1;align=center;verticalAlign=middle;whiteSpace=wrap;rounded=0;fontSize=14;aspect=fixed;" vertex="1" parent="1">
          <mxGeometry x="83" y="642" width="60" height="30" as="geometry" />
        </mxCell>
        <mxCell id="Z_fFSw_3jqZQKLgusjVg-47" value="1:N" style="text;html=1;align=center;verticalAlign=middle;whiteSpace=wrap;rounded=0;fontSize=14;aspect=fixed;" vertex="1" parent="1">
          <mxGeometry x="616" y="642" width="60" height="30" as="geometry" />
        </mxCell>
        <mxCell id="Z_fFSw_3jqZQKLgusjVg-48" value="Vende" style="text;html=1;align=center;verticalAlign=middle;whiteSpace=wrap;rounded=0;fontSize=14;aspect=fixed;" vertex="1" parent="1">
          <mxGeometry x="530" y="642" width="60" height="30" as="geometry" />
        </mxCell>
        <mxCell id="Z_fFSw_3jqZQKLgusjVg-49" value="Es vendido" style="text;html=1;align=center;verticalAlign=middle;whiteSpace=wrap;rounded=0;fontSize=14;aspect=fixed;" vertex="1" parent="1">
          <mxGeometry x="225" y="637" width="80" height="40" as="geometry" />
        </mxCell>
        <mxCell id="Z_fFSw_3jqZQKLgusjVg-50" value="1:1" style="text;html=1;align=center;verticalAlign=middle;whiteSpace=wrap;rounded=0;fontSize=14;aspect=fixed;" vertex="1" parent="1">
          <mxGeometry x="-194" y="528" width="60" height="30" as="geometry" />
        </mxCell>
        <mxCell id="Z_fFSw_3jqZQKLgusjVg-51" value="0:1 ó 1:1" style="text;html=1;align=center;verticalAlign=middle;whiteSpace=wrap;rounded=0;fontSize=14;aspect=fixed;" vertex="1" parent="1">
          <mxGeometry x="-17.5" y="534.5" width="60" height="30" as="geometry" />
        </mxCell>
        <mxCell id="Z_fFSw_3jqZQKLgusjVg-52" value="0:N" style="text;html=1;align=center;verticalAlign=middle;whiteSpace=wrap;rounded=0;fontSize=14;aspect=fixed;" vertex="1" parent="1">
          <mxGeometry x="1099" y="642" width="60" height="30" as="geometry" />
        </mxCell>
        <mxCell id="Z_fFSw_3jqZQKLgusjVg-56" value="1:N" style="text;html=1;align=center;verticalAlign=middle;whiteSpace=wrap;rounded=0;fontSize=14;aspect=fixed;" vertex="1" parent="1">
          <mxGeometry x="743" y="642" width="60" height="30" as="geometry" />
        </mxCell>
        <mxCell id="Z_fFSw_3jqZQKLgusjVg-59" value="1:1" style="text;html=1;align=center;verticalAlign=middle;whiteSpace=wrap;rounded=0;fontSize=14;aspect=fixed;" vertex="1" parent="1">
          <mxGeometry x="1247" y="642" width="60" height="30" as="geometry" />
        </mxCell>
        <mxCell id="Z_fFSw_3jqZQKLgusjVg-60" value="0:1" style="text;html=1;align=center;verticalAlign=middle;whiteSpace=wrap;rounded=0;fontSize=14;aspect=fixed;" vertex="1" parent="1">
          <mxGeometry x="1380" y="650" width="60" height="30" as="geometry" />
        </mxCell>
        <mxCell id="Z_fFSw_3jqZQKLgusjVg-62" value="Fidelizado" style="shape=process;whiteSpace=wrap;html=1;backgroundOutline=1;fillColor=#e1d5e7;strokeColor=#9673a6;fontSize=14;aspect=fixed;" vertex="1" parent="1">
          <mxGeometry x="1425" y="550" width="100" height="50" as="geometry" />
        </mxCell>
        <mxCell id="Z_fFSw_3jqZQKLgusjVg-64" value="Sin fidelizar" style="shape=process;whiteSpace=wrap;html=1;backgroundOutline=1;fillColor=#e1d5e7;strokeColor=#9673a6;fontSize=14;aspect=fixed;" vertex="1" parent="1">
          <mxGeometry x="1425" y="730" width="100" height="50" as="geometry" />
        </mxCell>
        <mxCell id="Z_fFSw_3jqZQKLgusjVg-65" value="Horticultor" style="shape=process;whiteSpace=wrap;html=1;backgroundOutline=1;fillColor=#e1d5e7;strokeColor=#9673a6;fontSize=14;aspect=fixed;" vertex="1" parent="1">
          <mxGeometry x="10" y="430" width="100" height="50" as="geometry" />
        </mxCell>
        <mxCell id="Z_fFSw_3jqZQKLgusjVg-66" value="Vendedor" style="shape=process;whiteSpace=wrap;html=1;backgroundOutline=1;fillColor=#e1d5e7;strokeColor=#9673a6;fontSize=14;aspect=fixed;" vertex="1" parent="1">
          <mxGeometry y="640" width="100" height="50" as="geometry" />
        </mxCell>
        <mxCell id="Z_fFSw_3jqZQKLgusjVg-68" style="rounded=0;orthogonalLoop=1;jettySize=auto;html=1;exitX=0.5;exitY=1;exitDx=0;exitDy=0;entryX=0.5;entryY=0;entryDx=0;entryDy=0;endArrow=none;endFill=0;" edge="1" parent="1" source="Z_fFSw_3jqZQKLgusjVg-67" target="AyrixzSQWaV738IrmU4d-10">
          <mxGeometry relative="1" as="geometry" />
        </mxCell>
        <mxCell id="Z_fFSw_3jqZQKLgusjVg-67" value="Productividad" style="ellipse;whiteSpace=wrap;html=1;align=center;fillColor=#e1d5e7;strokeColor=#9673a6;aspect=fixed;fontSize=14;dashed=1;dashPattern=12 12;" vertex="1" parent="1">
          <mxGeometry x="500" y="294.5" width="90" height="90" as="geometry" />
        </mxCell>
        <mxCell id="zZc5tvdtqpfXuyB3mYr--1" value="&lt;font style=&quot;font-size: 14px;&quot;&gt;Producto&lt;/font&gt;" style="ellipse;whiteSpace=wrap;html=1;align=center;fillColor=#e1d5e7;strokeColor=#9673a6;aspect=fixed;fontSize=14;" vertex="1" parent="1">
          <mxGeometry x="1271" y="447.5" width="60" height="60" as="geometry" />
        </mxCell>
        <mxCell id="zZc5tvdtqpfXuyB3mYr--2" value="&lt;font style=&quot;font-size: 14px;&quot;&gt;Cantidad&lt;/font&gt;" style="ellipse;whiteSpace=wrap;html=1;align=center;fillColor=#e1d5e7;strokeColor=#9673a6;aspect=fixed;fontSize=14;" vertex="1" parent="1">
          <mxGeometry x="1340" y="445" width="60" height="60" as="geometry" />
        </mxCell>
        <mxCell id="zZc5tvdtqpfXuyB3mYr--4" style="rounded=0;orthogonalLoop=1;jettySize=auto;html=1;entryX=0.5;entryY=0;entryDx=0;entryDy=0;endArrow=none;endFill=0;" edge="1" parent="1" source="zZc5tvdtqpfXuyB3mYr--3" target="AyrixzSQWaV738IrmU4d-116">
          <mxGeometry relative="1" as="geometry" />
        </mxCell>
        <mxCell id="zZc5tvdtqpfXuyB3mYr--3" value="&lt;font style=&quot;font-size: 14px;&quot;&gt;Fecha&lt;/font&gt;" style="ellipse;whiteSpace=wrap;html=1;align=center;fillColor=#e1d5e7;strokeColor=#9673a6;aspect=fixed;fontSize=14;" vertex="1" parent="1">
          <mxGeometry x="1210" y="452.5" width="50" height="50" as="geometry" />
        </mxCell>
        <mxCell id="zZc5tvdtqpfXuyB3mYr--5" style="rounded=0;orthogonalLoop=1;jettySize=auto;html=1;entryX=0.5;entryY=1;entryDx=0;entryDy=0;endArrow=none;endFill=0;exitX=0.5;exitY=0;exitDx=0;exitDy=0;" edge="1" parent="1" source="AyrixzSQWaV738IrmU4d-116" target="zZc5tvdtqpfXuyB3mYr--1">
          <mxGeometry relative="1" as="geometry">
            <mxPoint x="1225" y="503" as="sourcePoint" />
            <mxPoint x="1284" y="548" as="targetPoint" />
          </mxGeometry>
        </mxCell>
        <mxCell id="zZc5tvdtqpfXuyB3mYr--6" style="rounded=0;orthogonalLoop=1;jettySize=auto;html=1;entryX=0.5;entryY=1;entryDx=0;entryDy=0;endArrow=none;endFill=0;exitX=0.5;exitY=0;exitDx=0;exitDy=0;" edge="1" parent="1" source="AyrixzSQWaV738IrmU4d-116" target="zZc5tvdtqpfXuyB3mYr--2">
          <mxGeometry relative="1" as="geometry">
            <mxPoint x="1235" y="513" as="sourcePoint" />
            <mxPoint x="1294" y="558" as="targetPoint" />
          </mxGeometry>
        </mxCell>
        <mxCell id="zZc5tvdtqpfXuyB3mYr--7" style="rounded=0;orthogonalLoop=1;jettySize=auto;html=1;endArrow=none;endFill=0;entryX=0.5;entryY=1;entryDx=0;entryDy=0;exitX=0.5;exitY=0;exitDx=0;exitDy=0;" edge="1" parent="1" source="AyrixzSQWaV738IrmU4d-116" target="zZc5tvdtqpfXuyB3mYr--9">
          <mxGeometry relative="1" as="geometry">
            <mxPoint x="1245" y="523" as="sourcePoint" />
            <mxPoint x="1160" y="510" as="targetPoint" />
          </mxGeometry>
        </mxCell>
        <mxCell id="zZc5tvdtqpfXuyB3mYr--9" value="Importe" style="ellipse;whiteSpace=wrap;html=1;align=center;fillColor=#e1d5e7;strokeColor=#9673a6;aspect=fixed;fontSize=14;dashed=1;dashPattern=12 12;" vertex="1" parent="1">
          <mxGeometry x="1147" y="450" width="55" height="55" as="geometry" />
        </mxCell>
      </root>
    </mxGraphModel>
  </diagram>
</mxfile>
